<?xml version="1.0" encoding="UTF-8" standalone="no"?>
<!DOCTYPE svg PUBLIC "-//W3C//DTD SVG 1.1//EN" "http://www.w3.org/Graphics/SVG/1.1/DTD/svg11.dtd">
<svg version="1.1" xmlns="http://www.w3.org/2000/svg" xmlns:xlink="http://www.w3.org/1999/xlink" preserveAspectRatio="xMidYMid meet" viewBox="0 0 640 640" width="640" height="640"><defs><path d="M353.1 372.59L352.67 161.02L370.06 160.98L370.5 372.55L353.1 372.59Z" id="c1ZY99WS5a"></path><path d="M337.86 301.1L152.17 199.69L160.51 184.42L346.19 285.83L337.86 301.1Z" id="a5vEpJXUKS"></path><path d="M251.03 143.6C251.03 143.6 250.91 143.43 250.78 143.22C250.64 143.01 250.53 142.84 250.53 142.84C250.53 142.84 250.64 143.01 250.78 143.22C250.91 143.43 250.98 143.52 251.03 143.6Z" id="c1ZGtfgwaD"></path><path d="M331.21 250.43C311.79 263.24 285.73 258.04 273.06 238.83C260.38 219.62 265.86 193.62 285.28 180.81C304.7 168 330.76 173.2 343.43 192.41C356.1 211.62 350.63 237.62 331.21 250.43Z" id="d1N8JE48KX"></path><path d="M323.82 367.87C304.4 380.68 278.34 375.48 265.67 356.27C252.99 337.06 258.47 311.06 277.89 298.25C297.31 285.44 323.37 290.63 336.04 309.85C348.72 329.06 343.24 355.06 323.82 367.87Z" id="d1hFHAH3ei"></path><path d="M239.44 469.64L239.01 258.07L256.41 258.04L256.84 469.61L239.44 469.64Z" id="a1c9QcNfAA"></path><path d="M475.4 392.98L263.86 396.27L263.59 378.88L475.13 375.59L475.4 392.98Z" id="d4nbjblpny"></path><path d="M352.81 469.66L352.67 399.77L370.06 399.73L370.21 469.63L352.81 469.66Z" id="aEV82cV3"></path></defs><g><g><g><use xlink:href="#c1ZY99WS5a" opacity="1" fill="#0f1520" fill-opacity="1"></use></g><g><use xlink:href="#a5vEpJXUKS" opacity="1" fill="#0f1520" fill-opacity="1"></use></g><g><use xlink:href="#c1ZGtfgwaD" opacity="1" fill="#0f1520" fill-opacity="1"></use></g><g><use xlink:href="#d1N8JE48KX" opacity="1" fill="#0e52cc" fill-opacity="1"></use></g><g><use xlink:href="#d1hFHAH3ei" opacity="1" fill="#0e52cc" fill-opacity="1"></use></g><g><use xlink:href="#a1c9QcNfAA" opacity="1" fill="#0f1520" fill-opacity="1"></use></g><g><use xlink:href="#d4nbjblpny" opacity="1" fill="#0f1520" fill-opacity="1"></use></g><g><use xlink:href="#aEV82cV3" opacity="1" fill="#0f1520" fill-opacity="1"></use></g></g></g></svg>